<svg width="102" height="103" viewBox="0 0 102 103" fill="none" xmlns="http://www.w3.org/2000/svg">
<g clip-path="url(#clip0_75_2780)">
<path d="M14.6232 47.384H26.3638V50.8801H18.4336V54.0942H25.9294V57.5968H18.4336V61.0994H26.8047V64.6021H14.6232V47.384Z" fill="#2F2A37"/>
<path d="M14.6232 47.384H26.3638V50.8801H18.4336V54.0942H25.9294V57.5968H18.4336V61.0994H26.8047V64.6021H14.6232V47.384Z" fill="#2F2A37"/>
<path d="M29.8583 47.3841H35.5641C36.8942 47.3759 38.2202 47.5302 39.5127 47.8433C40.6879 48.1198 41.7956 48.6283 42.7703 49.3388C43.7127 50.0459 44.471 50.9682 44.9816 52.0281C45.5598 53.2858 45.839 54.6595 45.7976 56.0423C45.8239 57.3133 45.5536 58.573 45.0079 59.7221C44.4974 60.7577 43.7677 61.6707 42.8691 62.3982C41.9479 63.1349 40.8966 63.6933 39.7694 64.0446C38.5767 64.4172 37.3338 64.6052 36.084 64.6021H29.8649L29.8583 47.3841ZM33.6621 61.0995H35.6365C36.4624 61.1045 37.2861 61.0143 38.0912 60.8306C38.8037 60.6749 39.4761 60.3734 40.0655 59.9451C40.6347 59.5192 41.0873 58.9576 41.3817 58.3118C41.7189 57.5342 41.8807 56.6923 41.8556 55.8455C41.8736 55.084 41.7112 54.329 41.3817 53.6416C41.0793 53.0358 40.64 52.5082 40.0984 52.1002C39.5328 51.6793 38.8917 51.3699 38.2097 51.1885C37.4663 50.9815 36.6978 50.8778 35.926 50.8802H33.6819L33.6621 61.0995Z" fill="#2F2A37"/>
<path d="M29.8583 47.3841H35.5641C36.8942 47.3759 38.2202 47.5302 39.5127 47.8433C40.6879 48.1198 41.7956 48.6283 42.7703 49.3388C43.7127 50.0459 44.471 50.9682 44.9816 52.0281C45.5598 53.2858 45.839 54.6595 45.7976 56.0423C45.8239 57.3133 45.5536 58.573 45.0079 59.7221C44.4974 60.7577 43.7677 61.6707 42.8691 62.3982C41.9479 63.1349 40.8966 63.6933 39.7694 64.0446C38.5767 64.4172 37.3338 64.6052 36.084 64.6021H29.8649L29.8583 47.3841ZM33.6621 61.0995H35.6365C36.4624 61.1045 37.2861 61.0143 38.0912 60.8306C38.8037 60.6749 39.4761 60.3734 40.0655 59.9451C40.6347 59.5192 41.0873 58.9576 41.3817 58.3118C41.7189 57.5342 41.8807 56.6923 41.8556 55.8455C41.8736 55.084 41.7112 54.329 41.3817 53.6416C41.0793 53.0358 40.64 52.5082 40.0984 52.1002C39.5328 51.6793 38.8917 51.3699 38.2097 51.1885C37.4663 50.9815 36.6978 50.8778 35.926 50.8802H33.6819L33.6621 61.0995Z" fill="#2F2A37"/>
<path d="M23.0271 75.9103C22.6966 75.5085 22.2584 75.2083 21.7636 75.0445C21.2826 74.869 20.7753 74.7758 20.2631 74.769C19.9773 74.7701 19.6925 74.8031 19.4141 74.8674C19.1251 74.9293 18.846 75.0309 18.5849 75.1691C18.3258 75.2967 18.1003 75.4832 17.9268 75.7136C17.7623 75.9576 17.6773 76.2461 17.6833 76.54C17.6714 76.7722 17.7189 77.0036 17.8213 77.2124C17.9238 77.4212 18.0779 77.6006 18.269 77.7338C18.7229 78.0407 19.2196 78.2794 19.7432 78.4422C20.3421 78.6324 20.9804 78.8292 21.6649 79.026C22.3377 79.214 22.982 79.492 23.58 79.8524C24.1752 80.2097 24.6797 80.699 25.0541 81.2824C25.4774 82.0144 25.6807 82.8523 25.6398 83.6962C25.6608 84.5621 25.4759 85.4207 25.1002 86.2018C24.7586 86.894 24.2635 87.4996 23.6523 87.9728C23.0183 88.456 22.2965 88.8124 21.5267 89.0223C20.6973 89.2511 19.8404 89.3659 18.9798 89.3634C17.916 89.374 16.8583 89.2009 15.8538 88.8517C14.8556 88.4879 13.942 87.9255 13.1687 87.1988L15.8801 84.2275C16.2667 84.7424 16.7724 85.1564 17.3543 85.4344C18.2169 85.8597 19.2017 85.9711 20.1381 85.7492C20.4377 85.6818 20.7259 85.5714 20.9936 85.4212C21.2352 85.2835 21.4422 85.0929 21.5991 84.8637C21.769 84.6287 21.861 84.3466 21.8623 84.0569C21.8694 83.8195 21.8186 83.5838 21.7143 83.3702C21.61 83.1565 21.4553 82.9713 21.2634 82.8304C20.8019 82.5081 20.2937 82.2581 19.7564 82.0892C19.1509 81.8793 18.4928 81.6606 17.782 81.4332C17.092 81.2289 16.4291 80.9426 15.8077 80.5805C15.2097 80.226 14.6974 79.7445 14.3072 79.1703C13.8802 78.4778 13.6716 77.6734 13.7083 76.8614C13.6894 76.0173 13.8792 75.1816 14.2612 74.4279C14.6176 73.7473 15.1157 73.1502 15.7222 72.6766C16.3526 72.1939 17.0696 71.8355 17.8347 71.6206C18.6357 71.3838 19.4671 71.2644 20.3026 71.2664C21.2612 71.2643 22.2148 71.4036 23.1324 71.6796C24.0447 71.9557 24.8849 72.4282 25.5938 73.0636L23.0271 75.9103Z" fill="#2F2A37"/>
<path d="M23.0271 75.9103C22.6966 75.5085 22.2584 75.2083 21.7636 75.0445C21.2826 74.869 20.7753 74.7758 20.2631 74.769C19.9773 74.7701 19.6925 74.8031 19.4141 74.8674C19.1251 74.9293 18.846 75.0309 18.5849 75.1691C18.3258 75.2967 18.1003 75.4832 17.9268 75.7136C17.7623 75.9576 17.6773 76.2461 17.6833 76.54C17.6714 76.7722 17.7189 77.0036 17.8213 77.2124C17.9238 77.4212 18.0779 77.6006 18.269 77.7338C18.7229 78.0407 19.2196 78.2794 19.7432 78.4422C20.3421 78.6324 20.9804 78.8292 21.6649 79.026C22.3377 79.214 22.982 79.492 23.58 79.8524C24.1752 80.2097 24.6797 80.699 25.0541 81.2824C25.4774 82.0144 25.6807 82.8523 25.6398 83.6962C25.6608 84.5621 25.4759 85.4207 25.1002 86.2018C24.7586 86.894 24.2635 87.4996 23.6523 87.9728C23.0183 88.456 22.2965 88.8124 21.5267 89.0223C20.6973 89.2511 19.8404 89.3659 18.9798 89.3634C17.916 89.374 16.8583 89.2009 15.8538 88.8517C14.8556 88.4879 13.942 87.9255 13.1687 87.1988L15.8801 84.2275C16.2667 84.7424 16.7724 85.1564 17.3543 85.4344C18.2169 85.8597 19.2017 85.9711 20.1381 85.7492C20.4377 85.6818 20.7259 85.5714 20.9936 85.4212C21.2352 85.2835 21.4422 85.0929 21.5991 84.8637C21.769 84.6287 21.861 84.3466 21.8623 84.0569C21.8694 83.8195 21.8186 83.5838 21.7143 83.3702C21.61 83.1565 21.4553 82.9713 21.2634 82.8304C20.8019 82.5081 20.2937 82.2581 19.7564 82.0892C19.1509 81.8793 18.4928 81.6606 17.782 81.4332C17.092 81.2289 16.4291 80.9426 15.8077 80.5805C15.2097 80.226 14.6974 79.7445 14.3072 79.1703C13.8802 78.4778 13.6716 77.6734 13.7083 76.8614C13.6894 76.0173 13.8792 75.1816 14.2612 74.4279C14.6176 73.7473 15.1157 73.1502 15.7222 72.6766C16.3526 72.1939 17.0696 71.8355 17.8347 71.6206C18.6357 71.3838 19.4671 71.2644 20.3026 71.2664C21.2612 71.2643 22.2148 71.4036 23.1324 71.6796C24.0447 71.9557 24.8849 72.4282 25.5938 73.0636L23.0271 75.9103Z" fill="#2F2A37"/>
<path d="M28.4895 71.7058H34.906C35.7589 71.7005 36.61 71.7818 37.4463 71.9485C38.1913 72.0857 38.9009 72.3713 39.5325 72.7881C40.1336 73.1924 40.6207 73.7434 40.9475 74.3885C41.3235 75.1831 41.504 76.0555 41.4739 76.9335C41.4998 77.8007 41.3335 78.663 40.9869 79.4588C40.6928 80.1048 40.2401 80.6665 39.6707 81.0921C39.0619 81.515 38.3717 81.8076 37.6438 81.9514C36.8087 82.1276 35.957 82.2134 35.1035 82.2072H32.3197V88.9239H28.5158L28.4895 71.7058ZM32.2934 78.9997H34.8337C35.1652 79.0008 35.496 78.9678 35.8208 78.9013C36.1234 78.8439 36.4132 78.7328 36.6763 78.5734C36.9323 78.4093 37.1427 78.1837 37.2884 77.9174C37.4514 77.6062 37.5307 77.2582 37.5187 76.9073C37.535 76.5299 37.4288 76.1573 37.216 75.8447C37.0092 75.5787 36.7404 75.367 36.4328 75.2281C36.0976 75.0767 35.7396 74.9814 35.3733 74.9461C34.9994 74.9076 34.6238 74.8879 34.2479 74.887H32.2736L32.2934 78.9997Z" fill="#2F2A37"/>
<path d="M28.4895 71.7058H34.906C35.7589 71.7005 36.61 71.7818 37.4463 71.9485C38.1913 72.0857 38.9009 72.3713 39.5325 72.7881C40.1336 73.1924 40.6207 73.7434 40.9475 74.3885C41.3235 75.1831 41.504 76.0555 41.4739 76.9335C41.4998 77.8007 41.3335 78.663 40.9869 79.4588C40.6928 80.1048 40.2401 80.6665 39.6707 81.0921C39.0619 81.515 38.3717 81.8076 37.6438 81.9514C36.8087 82.1276 35.957 82.2134 35.1035 82.2072H32.3197V88.9239H28.5158L28.4895 71.7058ZM32.2934 78.9997H34.8337C35.1652 79.0008 35.496 78.9678 35.8208 78.9013C36.1234 78.8439 36.4132 78.7328 36.6763 78.5734C36.9323 78.4093 37.1427 78.1837 37.2884 77.9174C37.4514 77.6062 37.5307 77.2582 37.5187 76.9073C37.535 76.5299 37.4288 76.1573 37.216 75.8447C37.0092 75.5787 36.7404 75.367 36.4328 75.2281C36.0976 75.0767 35.7396 74.9814 35.3733 74.9461C34.9994 74.9076 34.6238 74.8879 34.2479 74.887H32.2736L32.2934 78.9997Z" fill="#2F2A37"/>
<path d="M47.7457 71.7058H50.8914L58.407 88.9239H54.1096L52.6222 85.2769H45.9161L44.4749 88.9239H40.2893L47.7457 71.7058ZM49.2067 76.7105L47.1073 82.0891H51.3323L49.2067 76.7105Z" fill="#2F2A37"/>
<path d="M47.7457 71.7058H50.8914L58.407 88.9239H54.1096L52.6222 85.2769H45.9161L44.4749 88.9239H40.2893L47.7457 71.7058ZM49.2067 76.7105L47.1073 82.0891H51.3323L49.2067 76.7105Z" fill="#2F2A37"/>
<path d="M71.4376 76.1857C71.0645 75.7368 70.5943 75.3779 70.0621 75.1362C69.463 74.8839 68.817 74.761 68.1668 74.7754C67.4935 74.7683 66.8265 74.9044 66.2102 75.1748C65.594 75.4451 65.0427 75.8434 64.5932 76.3431C64.1327 76.8579 63.7773 77.4572 63.5469 78.1075C63.038 79.5443 63.038 81.1114 63.5469 82.5482C63.7786 83.1891 64.129 83.781 64.5801 84.2929C65.0099 84.7847 65.5392 85.1804 66.1332 85.4539C66.7331 85.731 67.3871 85.8721 68.0483 85.8671C68.7699 85.8804 69.4831 85.7111 70.1213 85.3752C70.723 85.0533 71.2343 84.5866 71.6087 84.0174L74.7807 86.3788C74.0804 87.3734 73.1167 88.1545 71.9969 88.6352C70.9065 89.1162 69.7278 89.3663 68.5353 89.3698C67.2622 89.3747 65.9985 89.1525 64.8038 88.7139C63.7039 88.3206 62.6977 87.7041 61.8489 86.9035C61.007 86.0971 60.3454 85.1226 59.9075 84.0437C58.9774 81.6328 58.9774 78.9638 59.9075 76.553C60.347 75.4749 61.0083 74.5007 61.8489 73.6932C62.7011 72.897 63.7063 72.2812 64.8038 71.8828C65.9985 71.4441 67.2622 71.222 68.5353 71.2269C69.0469 71.2302 69.5575 71.274 70.0621 71.3581C70.5947 71.4494 71.1171 71.5922 71.6218 71.7844C72.1437 71.983 72.6388 72.2451 73.096 72.565C73.5779 72.8961 74.0062 73.2987 74.3661 73.7587L71.4376 76.1857Z" fill="#2F2A37"/>
<path d="M71.4376 76.1857C71.0645 75.7368 70.5943 75.3779 70.0621 75.1362C69.463 74.8839 68.817 74.761 68.1668 74.7754C67.4935 74.7683 66.8265 74.9044 66.2102 75.1748C65.594 75.4451 65.0427 75.8434 64.5932 76.3431C64.1327 76.8579 63.7773 77.4572 63.5469 78.1075C63.038 79.5443 63.038 81.1114 63.5469 82.5482C63.7786 83.1891 64.129 83.781 64.5801 84.2929C65.0099 84.7847 65.5392 85.1804 66.1332 85.4539C66.7331 85.731 67.3871 85.8721 68.0483 85.8671C68.7699 85.8804 69.4831 85.7111 70.1213 85.3752C70.723 85.0533 71.2343 84.5866 71.6087 84.0174L74.7807 86.3788C74.0804 87.3734 73.1167 88.1545 71.9969 88.6352C70.9065 89.1162 69.7278 89.3663 68.5353 89.3698C67.2622 89.3747 65.9985 89.1525 64.8038 88.7139C63.7039 88.3206 62.6977 87.7041 61.8489 86.9035C61.007 86.0971 60.3454 85.1226 59.9075 84.0437C58.9774 81.6328 58.9774 78.9638 59.9075 76.553C60.347 75.4749 61.0083 74.5007 61.8489 73.6932C62.7011 72.897 63.7063 72.2812 64.8038 71.8828C65.9985 71.4441 67.2622 71.222 68.5353 71.2269C69.0469 71.2302 69.5575 71.274 70.0621 71.3581C70.5947 71.4494 71.1171 71.5922 71.6218 71.7844C72.1437 71.983 72.6388 72.2451 73.096 72.565C73.5779 72.8961 74.0062 73.2987 74.3661 73.7587L71.4376 76.1857Z" fill="#2F2A37"/>
<path d="M77.0051 71.7058H88.7391V75.2019H80.8089V78.4159H88.3311V81.9186H80.8089V85.4212H89.18V88.9239H77.0051V71.7058Z" fill="#2F2A37"/>
<path d="M77.0051 71.7058H88.7391V75.2019H80.8089V78.4159H88.3311V81.9186H80.8089V85.4212H89.18V88.9239H77.0051V71.7058Z" fill="#2F2A37"/>
<path d="M102 103H-0.00646973V0.0195312H102V103ZM2.67861 100.33H99.3216V2.67602H2.67861V100.33Z" fill="#2F2A37"/>
<path d="M102 103H-0.00646973V0.0195312H102V103ZM2.67861 100.33H99.3216V2.67602H2.67861V100.33Z" fill="#2F2A37"/>
<path d="M83.1386 41.12L75.9719 33.9376L68.8116 41.12V1.33813H83.1386V41.12Z" fill="#2F2A37"/>
<path d="M83.1386 41.12L75.9719 33.9376L68.8116 41.12V1.33813H83.1386V41.12Z" fill="#2F2A37"/>
</g>
<defs>
<clipPath id="clip0_75_2780">
<rect width="102" height="103" fill="white"/>
</clipPath>
</defs>
</svg>
